# xmcd
#
# Track frame offsets:
#	150
#	15859
#	28660
#	44980
#	61980
#	76714
#	91814
#	108088
#	122779
#	140489
#	160774
#
# Disc length: 2355 seconds
#
# Revision: 0
# Processed by: cddbd v1.5.2PL0 Copyright (c) Steve Scherf et al.
# Submitted via: dBpowerAMP V4.0
#
DISCID=8009310b
DTITLE=Rumer - Seasons Of My Soul
DYEAR=2010
DGENRE=Other
TTITLE0=Am I Forgiven
TTITLE1=Come To Me High
TTITLE2=Slow
TTITLE3=Take Me As I Am
TTITLE4=Aretha
TTITLE5=Saving Grace
TTITLE6=Thankful
TTITLE7=Healer
TTITLE8=Blackbird
TTITLE9=On My Way Home
TTITLE10=Goodbye Girl
EXTD=
EXTT0=
EXTT1=
EXTT2=
EXTT3=
EXTT4=
EXTT5=
EXTT6=
EXTT7=
EXTT8=
EXTT9=
EXTT10=
PLAYORDER=
